<mxfile host="app.diagrams.net" modified="2023-08-17T08:31:50.073Z" agent="5.0 (Windows)" etag="MPvGAUDxVxDiH8lWrwCS" version="20.1.1" type="github">
  <diagram id="ZmQLkef9X21-wPfHA-lR" name="Page-1">
    <mxGraphModel dx="1422" dy="718" grid="1" gridSize="10" guides="1" tooltips="1" connect="1" arrows="1" fold="1" page="1" pageScale="1" pageWidth="827" pageHeight="1169" math="0" shadow="0">
      <root>
        <mxCell id="0" />
        <mxCell id="1" parent="0" />
        <mxCell id="VRcI0VA4H7FAgOBB5FaZ-6" value="CustInvoiceJour" style="swimlane;fontStyle=1;childLayout=stackLayout;horizontal=1;startSize=26;horizontalStack=0;resizeParent=1;resizeParentMax=0;resizeLast=0;collapsible=0;marginBottom=0;fontSize=14;swimlaneLine=1;fillColor=default;connectable=1;" parent="1" vertex="1">
          <mxGeometry x="40" y="160" width="140" height="130" as="geometry">
            <mxRectangle x="150" y="390" width="140" height="30" as="alternateBounds" />
          </mxGeometry>
        </mxCell>
        <mxCell id="VRcI0VA4H7FAgOBB5FaZ-18" value="InvoiceAccount" style="text;strokeColor=#666666;fillColor=#f5f5f5;align=left;verticalAlign=top;spacingLeft=4;spacingRight=4;overflow=hidden;rotatable=0;points=[[0,0.5],[1,0.5]];portConstraint=eastwest;fontSize=14;fontColor=#333333;" parent="VRcI0VA4H7FAgOBB5FaZ-6" vertex="1">
          <mxGeometry y="26" width="140" height="26" as="geometry" />
        </mxCell>
        <mxCell id="VRcI0VA4H7FAgOBB5FaZ-20" value="InvoiceDate" style="text;strokeColor=#666666;fillColor=#f5f5f5;align=left;verticalAlign=top;spacingLeft=4;spacingRight=4;overflow=hidden;rotatable=0;points=[[0,0.5],[1,0.5]];portConstraint=eastwest;fontSize=14;fontColor=#333333;" parent="VRcI0VA4H7FAgOBB5FaZ-6" vertex="1">
          <mxGeometry y="52" width="140" height="26" as="geometry" />
        </mxCell>
        <mxCell id="VRcI0VA4H7FAgOBB5FaZ-8" value="InvoiceId    " style="text;strokeColor=#666666;fillColor=#f5f5f5;align=left;verticalAlign=top;spacingLeft=4;spacingRight=4;overflow=hidden;rotatable=0;points=[[0,0.5],[1,0.5]];portConstraint=eastwest;fontSize=14;fontColor=#333333;" parent="VRcI0VA4H7FAgOBB5FaZ-6" vertex="1">
          <mxGeometry y="78" width="140" height="26" as="geometry" />
        </mxCell>
        <mxCell id="VRcI0VA4H7FAgOBB5FaZ-40" value="LedgerVoucher" style="text;strokeColor=#b85450;fillColor=#f8cecc;align=left;verticalAlign=top;spacingLeft=4;spacingRight=4;overflow=hidden;rotatable=0;points=[[0,0.5],[1,0.5]];portConstraint=eastwest;fontSize=14;" parent="VRcI0VA4H7FAgOBB5FaZ-6" vertex="1">
          <mxGeometry y="104" width="140" height="26" as="geometry" />
        </mxCell>
        <mxCell id="VRcI0VA4H7FAgOBB5FaZ-10" value="CustTrans" style="swimlane;fontStyle=1;childLayout=stackLayout;horizontal=1;startSize=26;fillColor=none;horizontalStack=0;resizeParent=1;resizeParentMax=0;resizeLast=0;collapsible=0;marginBottom=0;fontSize=14;connectable=1;" parent="1" vertex="1">
          <mxGeometry x="280" y="120" width="140" height="156" as="geometry">
            <mxRectangle x="150" y="390" width="140" height="30" as="alternateBounds" />
          </mxGeometry>
        </mxCell>
        <mxCell id="VRcI0VA4H7FAgOBB5FaZ-12" value="AccountNum" style="text;strokeColor=#666666;fillColor=#f5f5f5;align=left;verticalAlign=top;spacingLeft=4;spacingRight=4;overflow=hidden;rotatable=0;points=[[0,0.5],[1,0.5]];portConstraint=eastwest;fontSize=14;fontColor=#333333;" parent="VRcI0VA4H7FAgOBB5FaZ-10" vertex="1">
          <mxGeometry y="26" width="140" height="26" as="geometry" />
        </mxCell>
        <mxCell id="VRcI0VA4H7FAgOBB5FaZ-13" value="TransDate" style="text;strokeColor=#666666;fillColor=#f5f5f5;align=left;verticalAlign=top;spacingLeft=4;spacingRight=4;overflow=hidden;rotatable=0;points=[[0,0.5],[1,0.5]];portConstraint=eastwest;fontSize=14;fontColor=#333333;" parent="VRcI0VA4H7FAgOBB5FaZ-10" vertex="1">
          <mxGeometry y="52" width="140" height="26" as="geometry" />
        </mxCell>
        <mxCell id="VRcI0VA4H7FAgOBB5FaZ-16" value="Invoice" style="text;strokeColor=#666666;fillColor=#f5f5f5;align=left;verticalAlign=top;spacingLeft=4;spacingRight=4;overflow=hidden;rotatable=0;points=[[0,0.5],[1,0.5]];portConstraint=eastwest;fontSize=14;fontColor=#333333;" parent="VRcI0VA4H7FAgOBB5FaZ-10" vertex="1">
          <mxGeometry y="78" width="140" height="26" as="geometry" />
        </mxCell>
        <mxCell id="VRcI0VA4H7FAgOBB5FaZ-11" value="Voucher" style="text;strokeColor=#b85450;fillColor=#f8cecc;align=left;verticalAlign=top;spacingLeft=4;spacingRight=4;overflow=hidden;rotatable=0;points=[[0,0.5],[1,0.5]];portConstraint=eastwest;fontSize=14;" parent="VRcI0VA4H7FAgOBB5FaZ-10" vertex="1">
          <mxGeometry y="104" width="140" height="26" as="geometry" />
        </mxCell>
        <mxCell id="VRcI0VA4H7FAgOBB5FaZ-37" value="RecId" style="text;strokeColor=#666666;fillColor=#f5f5f5;align=left;verticalAlign=top;spacingLeft=4;spacingRight=4;overflow=hidden;rotatable=0;points=[[0,0.5],[1,0.5]];portConstraint=eastwest;fontSize=14;fontColor=#333333;" parent="VRcI0VA4H7FAgOBB5FaZ-10" vertex="1">
          <mxGeometry y="130" width="140" height="26" as="geometry" />
        </mxCell>
        <mxCell id="VRcI0VA4H7FAgOBB5FaZ-21" style="rounded=0;jumpStyle=arc;orthogonalLoop=1;jettySize=auto;html=1;exitX=0;exitY=0.5;exitDx=0;exitDy=0;fontSize=14;strokeColor=default;edgeStyle=entityRelationEdgeStyle;" parent="1" source="VRcI0VA4H7FAgOBB5FaZ-13" target="VRcI0VA4H7FAgOBB5FaZ-20" edge="1">
          <mxGeometry relative="1" as="geometry" />
        </mxCell>
        <mxCell id="VRcI0VA4H7FAgOBB5FaZ-22" style="rounded=0;jumpStyle=arc;orthogonalLoop=1;jettySize=auto;html=1;exitX=0;exitY=0.5;exitDx=0;exitDy=0;fontSize=14;strokeColor=default;edgeStyle=entityRelationEdgeStyle;" parent="1" source="VRcI0VA4H7FAgOBB5FaZ-11" target="VRcI0VA4H7FAgOBB5FaZ-40" edge="1">
          <mxGeometry relative="1" as="geometry">
            <mxPoint x="220" y="280" as="targetPoint" />
          </mxGeometry>
        </mxCell>
        <mxCell id="VRcI0VA4H7FAgOBB5FaZ-23" style="rounded=0;jumpStyle=arc;orthogonalLoop=1;jettySize=auto;html=1;exitX=0;exitY=0.5;exitDx=0;exitDy=0;fontSize=14;strokeColor=default;edgeStyle=entityRelationEdgeStyle;" parent="1" source="VRcI0VA4H7FAgOBB5FaZ-12" target="VRcI0VA4H7FAgOBB5FaZ-18" edge="1">
          <mxGeometry relative="1" as="geometry" />
        </mxCell>
        <mxCell id="VRcI0VA4H7FAgOBB5FaZ-24" value="LedgerJournalTrans" style="swimlane;fontStyle=1;childLayout=stackLayout;horizontal=1;startSize=26;fillColor=none;horizontalStack=0;resizeParent=1;resizeParentMax=0;resizeLast=0;collapsible=0;marginBottom=0;fontSize=14;" parent="1" vertex="1">
          <mxGeometry x="520" y="159" width="140" height="78" as="geometry">
            <mxRectangle x="150" y="390" width="140" height="30" as="alternateBounds" />
          </mxGeometry>
        </mxCell>
        <mxCell id="VRcI0VA4H7FAgOBB5FaZ-26" value="AccountNum" style="text;strokeColor=#666666;fillColor=#f5f5f5;align=left;verticalAlign=top;spacingLeft=4;spacingRight=4;overflow=hidden;rotatable=0;points=[[0,0.5],[1,0.5]];portConstraint=eastwest;fontSize=14;fontColor=#333333;" parent="VRcI0VA4H7FAgOBB5FaZ-24" vertex="1">
          <mxGeometry y="26" width="140" height="26" as="geometry" />
        </mxCell>
        <mxCell id="VRcI0VA4H7FAgOBB5FaZ-52" value="Voucher" style="text;strokeColor=#b85450;fillColor=#f8cecc;align=left;verticalAlign=top;spacingLeft=4;spacingRight=4;overflow=hidden;rotatable=0;points=[[0,0.5],[1,0.5]];portConstraint=eastwest;fontSize=14;" parent="VRcI0VA4H7FAgOBB5FaZ-24" vertex="1">
          <mxGeometry y="52" width="140" height="26" as="geometry" />
        </mxCell>
        <mxCell id="VRcI0VA4H7FAgOBB5FaZ-30" value="CustSettlement" style="swimlane;fontStyle=1;childLayout=stackLayout;horizontal=1;startSize=26;fillColor=none;horizontalStack=0;resizeParent=1;resizeParentMax=0;resizeLast=0;collapsible=0;marginBottom=0;fontSize=14;" parent="1" vertex="1">
          <mxGeometry x="280" y="320" width="140" height="130" as="geometry">
            <mxRectangle x="150" y="390" width="140" height="30" as="alternateBounds" />
          </mxGeometry>
        </mxCell>
        <mxCell id="VRcI0VA4H7FAgOBB5FaZ-31" value="AccountNum" style="text;align=left;verticalAlign=top;spacingLeft=4;spacingRight=4;overflow=hidden;rotatable=0;points=[[0,0.5],[1,0.5]];portConstraint=eastwest;fontSize=14;fillColor=#f5f5f5;fontColor=#333333;strokeColor=#666666;" parent="VRcI0VA4H7FAgOBB5FaZ-30" vertex="1">
          <mxGeometry y="26" width="140" height="26" as="geometry" />
        </mxCell>
        <mxCell id="VRcI0VA4H7FAgOBB5FaZ-35" value="TransRecId" style="text;align=left;verticalAlign=top;spacingLeft=4;spacingRight=4;overflow=hidden;rotatable=0;points=[[0,0.5],[1,0.5]];portConstraint=eastwest;fontSize=14;fillColor=#f5f5f5;fontColor=#333333;strokeColor=#666666;" parent="VRcI0VA4H7FAgOBB5FaZ-30" vertex="1">
          <mxGeometry y="52" width="140" height="26" as="geometry" />
        </mxCell>
        <mxCell id="VRcI0VA4H7FAgOBB5FaZ-39" value="OffsetTransVoucher" style="text;align=left;verticalAlign=top;spacingLeft=4;spacingRight=4;overflow=hidden;rotatable=0;points=[[0,0.5],[1,0.5]];portConstraint=eastwest;fontSize=14;fillColor=#f8cecc;strokeColor=#b85450;" parent="VRcI0VA4H7FAgOBB5FaZ-30" vertex="1">
          <mxGeometry y="78" width="140" height="26" as="geometry" />
        </mxCell>
        <mxCell id="VRcI0VA4H7FAgOBB5FaZ-49" style="edgeStyle=orthogonalEdgeStyle;rounded=1;jumpStyle=arc;orthogonalLoop=1;jettySize=auto;html=1;exitX=1;exitY=0.5;exitDx=0;exitDy=0;fontSize=14;strokeColor=default;" parent="VRcI0VA4H7FAgOBB5FaZ-30" source="VRcI0VA4H7FAgOBB5FaZ-47" target="VRcI0VA4H7FAgOBB5FaZ-35" edge="1">
          <mxGeometry relative="1" as="geometry" />
        </mxCell>
        <mxCell id="VRcI0VA4H7FAgOBB5FaZ-47" value="OffsetRecId" style="text;align=left;verticalAlign=top;spacingLeft=4;spacingRight=4;overflow=hidden;rotatable=0;points=[[0,0.5],[1,0.5]];portConstraint=eastwest;fontSize=14;fillColor=#f5f5f5;fontColor=#333333;strokeColor=#666666;" parent="VRcI0VA4H7FAgOBB5FaZ-30" vertex="1">
          <mxGeometry y="104" width="140" height="26" as="geometry" />
        </mxCell>
        <mxCell id="VRcI0VA4H7FAgOBB5FaZ-36" style="edgeStyle=entityRelationEdgeStyle;jumpStyle=arc;orthogonalLoop=1;jettySize=auto;html=1;fontSize=14;strokeColor=default;labelBorderColor=none;sketch=0;shadow=0;rounded=1;" parent="1" source="VRcI0VA4H7FAgOBB5FaZ-31" target="VRcI0VA4H7FAgOBB5FaZ-12" edge="1">
          <mxGeometry relative="1" as="geometry" />
        </mxCell>
        <mxCell id="VRcI0VA4H7FAgOBB5FaZ-41" style="edgeStyle=entityRelationEdgeStyle;rounded=0;jumpStyle=arc;orthogonalLoop=1;jettySize=auto;html=1;exitX=0;exitY=0.5;exitDx=0;exitDy=0;fontSize=14;strokeColor=default;strokeWidth=3;" parent="1" source="VRcI0VA4H7FAgOBB5FaZ-39" target="VRcI0VA4H7FAgOBB5FaZ-40" edge="1">
          <mxGeometry relative="1" as="geometry" />
        </mxCell>
        <mxCell id="VRcI0VA4H7FAgOBB5FaZ-50" style="edgeStyle=orthogonalEdgeStyle;rounded=1;jumpStyle=arc;orthogonalLoop=1;jettySize=auto;html=1;exitX=1;exitY=0.5;exitDx=0;exitDy=0;fontSize=14;strokeColor=default;" parent="1" source="VRcI0VA4H7FAgOBB5FaZ-12" target="VRcI0VA4H7FAgOBB5FaZ-26" edge="1">
          <mxGeometry relative="1" as="geometry" />
        </mxCell>
        <mxCell id="VRcI0VA4H7FAgOBB5FaZ-53" style="sketch=0;jumpStyle=arc;orthogonalLoop=1;jettySize=auto;html=1;shadow=0;labelBorderColor=none;fontSize=14;strokeColor=default;rounded=1;edgeStyle=orthogonalEdgeStyle;strokeWidth=3;" parent="1" source="VRcI0VA4H7FAgOBB5FaZ-39" target="VRcI0VA4H7FAgOBB5FaZ-52" edge="1">
          <mxGeometry relative="1" as="geometry" />
        </mxCell>
        <mxCell id="rsG92D4UXL5_5k9sRrBC-2" style="edgeStyle=orthogonalEdgeStyle;rounded=1;sketch=0;jumpStyle=arc;orthogonalLoop=1;jettySize=auto;html=1;exitX=0;exitY=0.5;exitDx=0;exitDy=0;entryX=0;entryY=0.5;entryDx=0;entryDy=0;shadow=0;labelBorderColor=none;fontSize=14;strokeColor=#FF3333;strokeWidth=3;" edge="1" parent="1" source="VRcI0VA4H7FAgOBB5FaZ-35" target="VRcI0VA4H7FAgOBB5FaZ-37">
          <mxGeometry relative="1" as="geometry" />
        </mxCell>
        <mxCell id="rsG92D4UXL5_5k9sRrBC-3" style="edgeStyle=orthogonalEdgeStyle;rounded=1;sketch=0;jumpStyle=arc;orthogonalLoop=1;jettySize=auto;html=1;exitX=0;exitY=0.5;exitDx=0;exitDy=0;entryX=0;entryY=0.5;entryDx=0;entryDy=0;shadow=0;labelBorderColor=none;fontSize=14;strokeColor=#FF3333;strokeWidth=3;" edge="1" parent="1" source="VRcI0VA4H7FAgOBB5FaZ-47" target="VRcI0VA4H7FAgOBB5FaZ-37">
          <mxGeometry relative="1" as="geometry" />
        </mxCell>
        <mxCell id="rsG92D4UXL5_5k9sRrBC-9" style="edgeStyle=orthogonalEdgeStyle;rounded=1;sketch=0;jumpStyle=arc;orthogonalLoop=1;jettySize=auto;html=1;exitX=1;exitY=0.5;exitDx=0;exitDy=0;entryX=1;entryY=0.5;entryDx=0;entryDy=0;shadow=0;labelBorderColor=none;fontSize=14;startArrow=none;startFill=0;strokeColor=#000000;strokeWidth=1;" edge="1" parent="1" source="VRcI0VA4H7FAgOBB5FaZ-31" target="VRcI0VA4H7FAgOBB5FaZ-24">
          <mxGeometry relative="1" as="geometry" />
        </mxCell>
        <mxCell id="rsG92D4UXL5_5k9sRrBC-10" style="edgeStyle=orthogonalEdgeStyle;rounded=1;sketch=0;jumpStyle=arc;orthogonalLoop=1;jettySize=auto;html=1;exitX=0;exitY=0.5;exitDx=0;exitDy=0;entryX=0;entryY=0.5;entryDx=0;entryDy=0;shadow=0;labelBorderColor=none;fontSize=14;startArrow=none;startFill=0;strokeColor=default;strokeWidth=1;" edge="1" parent="1" source="VRcI0VA4H7FAgOBB5FaZ-31" target="VRcI0VA4H7FAgOBB5FaZ-18">
          <mxGeometry relative="1" as="geometry" />
        </mxCell>
        <mxCell id="rsG92D4UXL5_5k9sRrBC-11" style="edgeStyle=orthogonalEdgeStyle;rounded=1;sketch=0;jumpStyle=arc;orthogonalLoop=1;jettySize=auto;html=1;exitX=1;exitY=0.5;exitDx=0;exitDy=0;shadow=0;labelBorderColor=none;fontSize=14;startArrow=none;startFill=0;strokeColor=#000000;strokeWidth=1;" edge="1" parent="1" source="VRcI0VA4H7FAgOBB5FaZ-11" target="VRcI0VA4H7FAgOBB5FaZ-52">
          <mxGeometry relative="1" as="geometry" />
        </mxCell>
        <mxCell id="rsG92D4UXL5_5k9sRrBC-12" style="rounded=0;sketch=0;jumpStyle=arc;orthogonalLoop=1;jettySize=auto;html=1;exitX=0;exitY=0.5;exitDx=0;exitDy=0;shadow=0;labelBorderColor=none;fontSize=14;startArrow=none;startFill=0;strokeColor=default;strokeWidth=1;edgeStyle=entityRelationEdgeStyle;" edge="1" parent="1" source="VRcI0VA4H7FAgOBB5FaZ-16" target="VRcI0VA4H7FAgOBB5FaZ-8">
          <mxGeometry relative="1" as="geometry" />
        </mxCell>
        <mxCell id="rsG92D4UXL5_5k9sRrBC-16" style="edgeStyle=orthogonalEdgeStyle;rounded=1;sketch=0;jumpStyle=arc;orthogonalLoop=1;jettySize=auto;html=1;exitX=1;exitY=0.5;exitDx=0;exitDy=0;shadow=0;labelBorderColor=none;fontSize=14;startArrow=none;startFill=0;strokeColor=default;strokeWidth=1;elbow=vertical;entryX=1;entryY=0.5;entryDx=0;entryDy=0;" edge="1" parent="1" source="VRcI0VA4H7FAgOBB5FaZ-39" target="VRcI0VA4H7FAgOBB5FaZ-11">
          <mxGeometry relative="1" as="geometry">
            <mxPoint x="570" y="410" as="targetPoint" />
            <Array as="points">
              <mxPoint x="500" y="411" />
              <mxPoint x="500" y="237" />
            </Array>
          </mxGeometry>
        </mxCell>
      </root>
    </mxGraphModel>
  </diagram>
</mxfile>
